{
	"asset":{
		"version":"2.0",
		"generator":"Created using the official Cinema 4D glTF Exporter 1.000x284978"
	},
	"scenes":[{
		"nodes":[0]
	}],
	"nodes":[{
		"name":"Main_Low011.1",
		"translation":[0.5784250497817993,
		3.775787115097046,
		1.2631404399871827],
		"rotation":[0.0,
		0.0,
		0.0,
		-1.0],
		"scale":[1.0,
		1.0,
		1.0],
		"mesh":0
	}],
	"meshes":[{
		"name":"Main_Low011.1",
		"primitives":[{
			"attributes":{
				"POSITION":1,
				"NORMAL":2,
				"TEXCOORD_0":3
			},
			"indices":0
		}]
	}],
	"accessors":[{
		"bufferView":0,
		"type":"SCALAR",
		"componentType":5123,
		"count":89034,
		"byteOffset":0,
		"min":[0],
		"max":[17453]
	},
	{
		"bufferView":1,
		"type":"VEC3",
		"componentType":5126,
		"count":17454,
		"byteOffset":0,
		"min":[-9.554801940917969,
		-6.1401848793029789,
		-9.714856147766114],
		"max":[10.429421424865723,
		9.09936237335205,
		9.534431457519532]
	},
	{
		"bufferView":1,
		"type":"VEC3",
		"componentType":5126,
		"count":17454,
		"byteOffset":12,
		"min":[-0.99937504529953,
		-0.9998750686645508,
		-0.9999063014984131],
		"max":[0.99937504529953,
		0.9998750686645508,
		0.9999063014984131]
	},
	{
		"bufferView":1,
		"type":"VEC2",
		"componentType":5126,
		"count":17454,
		"byteOffset":24,
		"min":[0.0,
		0.0073090000078082088],
		"max":[1.0,
		1.0]
	}],
	"bufferViews":[{
		"buffer":0,
		"byteOffset":0,
		"byteLength":178068,
		"target":34963
	},
	{
		"buffer":0,
		"byteOffset":178068,
		"byteLength":558528,
		"target":34962,
		"byteStride":32
	}],
	"buffers":[{
		"uri":"data:application/octet-stream;base64,",
		"byteLength":736596
	}]
}